:FULLY-SPECIFIED
:FORCE-ALL-JOINTS-BE-3DOF
:DEGREES
170
root 6.3311 16.2281 -25.6319 3.02214 24.423 0.362734
lfemur -19.8058 18.0729 -5.17155
ltibia 35.9328 0 0
lfoot -6.74833 -10.0236 0
ltoes 25.9478 0 0
rfemur -29.3435 -11.5918 0.79986
rtibia 64.9 0 0
rfoot -0.155002 -15.9763 0
rtoes 23.293 0 0
lowerback 1.63089 -3.99474 -1.84337
upperback 0.607269 -5.38803 -3.23655
thorax -0.189417 -2.67816 -2.06835
lowerneck -10.8438 -6.17591 0.221496
upperneck 2.04534 -8.53977 5.37412
head 2.75173 -4.04257 1.20813
lclavicle 3.06928e-14 3.07976e-14 0
lhumerus -48.5471 -41.0327 110.404
lradius 51.3051 0 0
lwrist 14.866 0 0
lhand 36.1389 25.9606 0
lfingers 7.12502 0 0
lthumb 59.0956 40.4304 0
rclavicle 3.06928e-14 3.07976e-14 0
rhumerus -58.9084 4.48235 -92.4768
rradius 102.53 0 0
rwrist -1.51592 0 0
rhand 10.3489 -8.75942 0
rfingers 7.12502 0 0
rthumb 35.383 -394.599 0
171
root 6.27509 16.2182 -25.6042 3.32132 24.1272 0.502569
lfemur -19.7796 17.2667 -4.4406
ltibia 35.8814 0 0
lfoot -6.77446 -11.8479 0
ltoes 25.1915 0 0
rfemur -27.2142 -10.5869 -0.121973
rtibia 61.6935 0 0
rfoot -1.98126 -17.253 0
rtoes 25.4601 0 0
lowerback 1.16337 -3.75814 -1.65613
upperback 0.518735 -5.05414 -3.48199
thorax -0.0679005 -2.5122 -2.46851
lowerneck -10.8347 -6.30623 0.379679
upperneck 2.08208 -8.73757 5.39825
head 2.76131 -4.13749 1.17635
lclavicle 3.82716e-14 3.08631e-14 0
lhumerus -49.1562 -41.2461 110.975
lradius 51.475 0 0
lwrist 15.1484 0 0
lhand 36.4439 26.4305 0
lfingers 7.12502 0 0
lthumb 59.3605 40.6538 0
rclavicle 3.82716e-14 3.08631e-14 0
rhumerus -58.9146 6.15891 -93.5003
rradius 102.726 0 0
rwrist -1.19147 0 0
rhand 9.24403 -9.33765 0
rfingers 7.12502 0 0
rthumb 34.3417 -395.476 0
172
root 6.21943 16.207 -25.5775 3.61276 23.804 0.644599
lfemur -19.7113 16.4671 -3.7344
ltibia 35.7856 0 0
lfoot -6.84425 -13.5944 0
ltoes 24.5027 0 0
rfemur -25.1857 -9.63991 -1.01635
rtibia 58.6116 0 0
rfoot -3.76515 -18.4175 0
rtoes 27.5836 0 0
lowerback 0.708878 -3.52902 -1.47524
upperback 0.432695 -4.73078 -3.72332
thorax 0.0505181 -2.35147 -2.85967
lowerneck -10.8279 -6.41999 0.54045
upperneck 2.11948 -8.91353 5.41704
head 2.77127 -4.22168 1.14368
lclavicle 4.54186e-14 3.07934e-14 0
lhumerus -49.7522 -41.4576 111.526
lradius 51.6416 0 0
lwrist 15.4392 0 0
lhand 36.7397 26.8885 0
lfingers 7.12502 0 0
lthumb 59.6173 40.8724 0
rclavicle 4.54186e-14 3.07934e-14 0
rhumerus -58.8365 7.75831 -94.3447
rradius 102.848 0 0
rwrist -0.922857 0 0
rhand 8.17207 -9.93506 0
rfingers 7.12502 0 0
rthumb 33.3313 -396.362 0
173
root 6.16442 16.1943 -25.552 3.89428 23.4518 0.788404
lfemur -19.5958 15.6788 -3.0592
ltibia 35.6398 0 0
lfoot -6.96276 -15.245 0
ltoes 23.894 0 0
rfemur -23.279 -8.7623 -1.87631
rtibia 55.6835 0 0
rfoot -5.49328 -19.4511 0
rtoes 29.6494 0 0
lowerback 0.270941 -3.30941 -1.30225
upperback 0.349796 -4.42081 -3.95893
thorax 0.164941 -2.19741 -3.23898
lowerneck -10.8237 -6.51459 0.703425
upperneck 2.15752 -9.06414 5.42974
head 2.78164 -4.29342 1.11014
lclavicle 5.20276e-14 3.05755e-14 0
lhumerus -50.3309 -41.666 112.052
lradius 51.8036 0 0
lwrist 15.7382 0 0
lhand 37.024 27.3313 0
lfingers 7.12502 0 0
lthumb 59.8641 41.0847 0
rclavicle 5.20276e-14 3.05755e-14 0
rhumerus -58.6638 9.26353 -94.9836
rradius 102.887 0 0
rwrist -0.71905 0 0
rhand 7.14432 -10.551 0
rfingers 7.12502 0 0
rthumb 32.3626 -397.255 0
174
root 6.11033 16.18 -25.5278 4.16369 23.0686 0.933561
lfemur -19.4283 14.9064 -2.42129
ltibia 35.4388 0 0
lfoot -7.13504 -16.7822 0
ltoes 23.3777 0 0
rfemur -21.5152 -7.9654 -2.69487
rtibia 52.9384 0 0
rfoot -7.15223 -20.3352 0
rtoes 31.6437 0 0
lowerback -0.14692 -3.10134 -1.13867
upperback 0.270682 -4.12706 -4.18719
thorax 0.274471 -2.05142 -3.60359
lowerneck -10.8223 -6.58746 0.868217
upperneck 2.19618 -9.1859 5.4356
head 2.79242 -4.35099 1.07577
lclavicle 5.79927e-14 3.01969e-14 0
lhumerus -50.8883 -41.8703 112.549
lradius 51.96 0 0
lwrist 16.0454 0 0
lhand 37.2945 27.7556 0
lfingers 7.12502 0 0
lthumb 60.0989 41.2892 0
rclavicle 5.79927e-14 3.01969e-14 0
rhumerus -58.3859 10.6575 -95.3904
rradius 102.833 0 0
rwrist -0.588999 0 0
rhand 6.17202 -11.185 0
rfingers 7.12502 0 0
rthumb 31.4461 -398.15 0
175
root 6.05746 16.1641 -25.5052 4.4188 22.6527 1.07965
lfemur -19.2037 14.1544 -1.82692
ltibia 35.1773 0 0
lfoot -7.36614 -18.188 0
ltoes 22.9662 0 0
rfemur -19.9157 -7.26058 -3.46507
rtibia 50.4055 0 0
rfoot -8.72863 -21.0508 0
rtoes 33.5523 0 0
lowerback -0.541183 -2.90683 -0.986023
upperback 0.195997 -3.85238 -4.4065
thorax 0.37821 -1.91492 -3.95064
lowerneck -10.8241 -6.63602 1.03444
upperneck 2.23542 -9.27528 5.43386
head 2.80364 -4.39269 1.0406
lclavicle 6.32077e-14 2.96447e-14 0
lhumerus -51.4202 -42.0696 113.012
lradius 52.1098 0 0
lwrist 16.3606 0 0
lhand 37.5491 28.158 0
lfingers 7.12502 0 0
lthumb 60.3197 41.4843 0
rclavicle 6.32077e-14 2.96447e-14 0
rhumerus -57.9926 11.9233 -95.5385
rradius 102.675 0 0
rwrist -0.541662 0 0
rhand 5.26644 -11.8362 0
rfingers 7.12502 0 0
rthumb 30.5924 -399.044 0
176
root 6.00609 16.1463 -25.4845 4.65742 22.2023 1.22625
lfemur -18.9172 13.4274 -1.28238
ltibia 34.8498 0 0
lfoot -7.66111 -19.4446 0
ltoes 22.6722 0 0
rfemur -18.5014 -6.65921 -4.17994
rtibia 48.1141 0 0
rfoot -10.2091 -21.5792 0
rtoes 35.3613 0 0
lowerback -0.908327 -2.72793 -0.845843
upperback 0.126387 -3.59962 -4.61522
thorax 0.47526 -1.78934 -4.2773
lowerneck -10.8293 -6.65769 1.20171
upperneck 2.27522 -9.32879 5.42377
head 2.81532 -4.41678 1.00465
lclavicle 6.75665e-14 2.89061e-14 0
lhumerus -51.9225 -42.2627 113.436
lradius 52.2519 0 0
lwrist 16.6835 0 0
lhand 37.7854 28.5351 0
lfingers 7.12502 0 0
lthumb 60.5246 41.6684 0
rclavicle 6.75665e-14 2.89061e-14 0
rhumerus -57.4733 13.0438 -95.4014
rradius 102.405 0 0
rwrist -0.585998 0 0
rhand 4.43882 -12.5041 0
rfingers 7.12502 0 0
rthumb 29.8121 -399.932 0
177
root 5.95652 16.1266 -25.4659 4.87736 21.7155 1.37294
lfemur -18.5637 12.73 -0.793921
ltibia 34.4511 0 0
lfoot -8.025 -20.5342 0
ltoes 22.508 0 0
rfemur -17.2936 -6.17266 -4.83249
rtibia 46.0933 0 0
rfoot -11.5801 -21.9018 0
rtoes 37.0566 0 0
lowerback -1.24483 -2.56666 -0.719652
upperback 0.0624948 -3.37162 -4.81174
thorax 0.564723 -1.67607 -4.58071
lowerneck -10.8383 -6.64989 1.36964
upperneck 2.31554 -9.3429 5.40457
head 2.82748 -4.42157 0.967972
lclavicle 7.0963e-14 2.79683e-14 0
lhumerus -52.3912 -42.4487 113.816
lradius 52.3852 0 0
lwrist 17.0141 0 0
lhand 38.0011 28.8836 0
lfingers 7.12502 0 0
lthumb 60.7116 41.84 0
rclavicle 7.0963e-14 2.79683e-14 0
rhumerus -56.8177 14.0021 -94.9525
rradius 102.012 0 0
rwrist -0.730963 0 0
rhand 3.70041 -13.188 0
rfingers 7.12502 0 0
rthumb 29.1157 -400.812 0
178
root 5.90902 16.1048 -25.4495 5.07644 21.1907 1.51929
lfemur -18.1383 12.0669 -0.367828
ltibia 33.9759 0 0
lfoot -8.46286 -21.439 0
ltoes 22.4861 0 0
rfemur -16.3133 -5.81229 -5.41577
rtibia 44.3723 0 0
rfoot -12.8284 -21.9996 0
rtoes 38.6244 0 0
lowerback -1.54717 -2.42505 -0.608974
upperback 0.00496644 -3.17122 -4.99444
thorax 0.645701 -1.57654 -4.85802
lowerneck -10.8512 -6.61004 1.53783
upperneck 2.35636 -9.31411 5.37552
head 2.84013 -4.40532 0.930581
lclavicle 7.32912e-14 2.68187e-14 0
lhumerus -52.822 -42.6266 114.149
lradius 52.5087 0 0
lwrist 17.352 0 0
lhand 38.1941 29.2 0
lfingers 7.12502 0 0
lthumb 60.8787 41.9975 0
rclavicle 7.32912e-14 2.68187e-14 0
rhumerus -56.0153 14.7809 -94.1653
rradius 101.487 0 0
rwrist -0.985514 0 0
rhand 3.06248 -13.8873 0
rfingers 7.12502 0 0
rthumb 28.514 -401.679 0
179
root 5.8639 16.0808 -25.4357 5.25247 20.626 1.66489
lfemur -17.6361 11.4426 -0.0103658
ltibia 33.4187 0 0
lfoot -8.97975 -22.1413 0
ltoes 22.6189 0 0
rfemur -15.5818 -5.58949 -5.9228
rtibia 42.9804 0 0
rfoot -13.9406 -21.8541 0
rtoes 40.0505 0 0
lowerback -1.81182 -2.30514 -0.515334
upperback -0.0455538 -3.00128 -5.16171
thorax 0.717296 -1.49217 -5.10638
lowerneck -10.8685 -6.53556 1.70592
upperneck 2.39766 -9.2389 5.33585
head 2.8533 -4.36633 0.892514
lclavicle 7.44449e-14 2.54444e-14 0
lhumerus -53.211 -42.7952 114.428
lradius 52.6212 0 0
lwrist 17.6973 0 0
lhand 38.362 29.4811 0
lfingers 7.12502 0 0
lthumb 61.024 42.1395 0
rclavicle 7.44449e-14 2.54444e-14 0
rhumerus -55.0558 15.3635 -93.0133
rradius 100.819 0 0
rwrist -1.35861 0 0
rhand 2.53628 -14.6014 0
rfingers 7.12502 0 0
rthumb 28.0174 -402.53 0
